{
  "accessors": [
    {
      "bufferView": 2,
      "componentType": 5126,
      "count": 774,
      "max": [
        0.826395571231842,
        0.8442190289497375,
        0.21899324655532837
      ],
      "min": [
        -0.8510997295379639,
        -0.9375876784324646,
        -0.1637755185365677
      ],
      "type": "VEC3"
    },
    {
      "bufferView": 2,
      "byteOffset": 9288,
      "componentType": 5126,
      "count": 774,
      "max": [
        0.9942479729652405,
        0.9993445873260498,
        0.999904215335846
      ],
      "min": [
        -0.9994744062423706,
        -0.9998015761375427,
        -0.9982826709747314
      ],
      "type": "VEC3"
    },
    {
      "bufferView": 3,
      "componentType": 5126,
      "count": 774,
      "max": [
        0.9999290108680725,
        0.9900291562080383,
        0.9993493556976318,
        1.0
      ],
      "min": [
        -0.9982857704162598,
        -0.9715046882629395,
        -0.9969891309738159,
        -1.0
      ],
      "type": "VEC4"
    },
    {
      "bufferView": 1,
      "componentType": 5126,
      "count": 774,
      "max": [
        0.45048776268959045,
        0.47883880138397217
      ],
      "min": [
        0.010332220233976841,
        0.03638690710067749
      ],
      "type": "VEC2"
    },
    {
      "bufferView": 0,
      "componentType": 5125,
      "count": 2016,
      "type": "SCALAR"
    },
    {
      "bufferView": 2,
      "byteOffset": 18576,
      "componentType": 5126,
      "count": 113,
      "max": [
        0.6128252744674683,
        0.6712358593940735,
        0.10655662417411804
      ],
      "min": [
        -0.5938042998313904,
        -0.67954021692276,
        -0.0289321206510067
      ],
      "type": "VEC3"
    },
    {
      "bufferView": 2,
      "byteOffset": 19932,
      "componentType": 5126,
      "count": 113,
      "max": [
        0.7039933800697327,
        0.7796348929405212,
        0.9990739822387695
      ],
      "min": [
        -0.7998992800712585,
        -0.7714253067970276,
        0.516212522983551
      ],
      "type": "VEC3"
    },
    {
      "bufferView": 3,
      "byteOffset": 12384,
      "componentType": 5126,
      "count": 113,
      "max": [
        0.9732143878936768,
        0.9694031476974487,
        0.036454685032367706,
        1.0
      ],
      "min": [
        -0.9987265467643738,
        -0.9653760194778442,
        -0.8552281260490417,
        1.0
      ],
      "type": "VEC4"
    },
    {
      "bufferView": 1,
      "byteOffset": 6192,
      "componentType": 5126,
      "count": 113,
      "max": [
        0.989093542098999,
        0.9730541706085205
      ],
      "min": [
        0.7529025077819824,
        0.01850871741771698
      ],
      "type": "VEC2"
    },
    {
      "bufferView": 0,
      "byteOffset": 8064,
      "componentType": 5125,
      "count": 480,
      "type": "SCALAR"
    },
    {
      "bufferView": 2,
      "byteOffset": 21288,
      "componentType": 5126,
      "count": 2933,
      "max": [
        0.613464891910553,
        0.6647393703460693,
        0.6325061917304993
      ],
      "min": [
        -0.6544936299324036,
        -0.6796135306358337,
        -0.05266636237502098
      ],
      "type": "VEC3"
    },
    {
      "bufferView": 2,
      "byteOffset": 56484,
      "componentType": 5126,
      "count": 2933,
      "max": [
        0.999948263168335,
        0.9997684359550476,
        0.9996296167373657
      ],
      "min": [
        -0.9999011158943176,
        -0.9993219375610352,
        -0.9985434412956238
      ],
      "type": "VEC3"
    },
    {
      "bufferView": 3,
      "byteOffset": 14192,
      "componentType": 5126,
      "count": 2933,
      "max": [
        0.9999143481254578,
        0.9966492056846619,
        0.9998526573181152,
        1.0
      ],
      "min": [
        -0.996017575263977,
        -0.999890923500061,
        -0.9929565787315369,
        -1.0
      ],
      "type": "VEC4"
    },
    {
      "bufferView": 1,
      "byteOffset": 7096,
      "componentType": 5126,
      "count": 2933,
      "max": [
        0.7442535161972046,
        0.9811179637908936
      ],
      "min": [
        0.015935899689793587,
        0.015773413702845573
      ],
      "type": "VEC2"
    },
    {
      "bufferView": 0,
      "byteOffset": 9984,
      "componentType": 5125,
      "count": 13728,
      "type": "SCALAR"
    }
  ],
  "asset": {
    "extras": {
      "author": "Mavek (https://sketchfab.com/MarekMachava)",
      "license": "CC-BY-4.0 (http://creativecommons.org/licenses/by/4.0/)",
      "source": "https://sketchfab.com/3d-models/campfire-17a770b5913b482da2a5a6e447f7471d",
      "title": "CampFire"
    },
    "generator": "Sketchfab-16.85.0",
    "version": "2.0"
  },
  "bufferViews": [
    {
      "buffer": 0,
      "byteLength": 64896,
      "name": "floatBufferViews",
      "target": 34963
    },
    {
      "buffer": 0,
      "byteLength": 30560,
      "byteOffset": 64896,
      "byteStride": 8,
      "name": "floatBufferViews",
      "target": 34962
    },
    {
      "buffer": 0,
      "byteLength": 91680,
      "byteOffset": 95456,
      "byteStride": 12,
      "name": "floatBufferViews",
      "target": 34962
    },
    {
      "buffer": 0,
      "byteLength": 61120,
      "byteOffset": 187136,
      "byteStride": 16,
      "name": "floatBufferViews",
      "target": 34962
    }
  ],
  "buffers": [
    {
      "byteLength": 248256,
      "uri": "scene.bin"
    }
  ],
  "images": [
    {
      "uri": "textures/Stone_baseColor.png"
    },
    {
      "uri": "textures/Stone_emissive.png"
    },
    {
      "uri": "textures/Stone_normal.png"
    },
    {
      "uri": "textures/material_baseColor.png"
    },
    {
      "uri": "textures/material_emissive.png"
    },
    {
      "uri": "textures/material_normal.png"
    },
    {
      "uri": "textures/Wood_baseColor.png"
    },
    {
      "uri": "textures/Wood_emissive.png"
    },
    {
      "uri": "textures/Wood_normal.png"
    }
  ],
  "materials": [
    {
      "doubleSided": true,
      "emissiveFactor": [
        1.0,
        1.0,
        1.0
      ],
      "emissiveTexture": {
        "index": 1
      },
      "name": "Stone",
      "normalTexture": {
        "index": 2
      },
      "pbrMetallicRoughness": {
        "baseColorTexture": {
          "index": 0
        },
        "metallicFactor": 0.0,
        "roughnessFactor": 0.8211145618000169
      }
    },
    {
      "doubleSided": true,
      "emissiveFactor": [
        1.0,
        1.0,
        1.0
      ],
      "emissiveTexture": {
        "index": 4
      },
      "name": "material",
      "normalTexture": {
        "index": 5
      },
      "pbrMetallicRoughness": {
        "baseColorTexture": {
          "index": 3
        },
        "metallicFactor": 0.0,
        "roughnessFactor": 0.8211145618000169
      }
    },
    {
      "doubleSided": true,
      "emissiveFactor": [
        1.0,
        1.0,
        1.0
      ],
      "emissiveTexture": {
        "index": 7
      },
      "name": "Wood",
      "normalTexture": {
        "index": 8
      },
      "pbrMetallicRoughness": {
        "baseColorTexture": {
          "index": 6
        },
        "metallicFactor": 0.0,
        "roughnessFactor": 0.8211145618000169
      }
    }
  ],
  "meshes": [
    {
      "name": "CampFire_Stone_0",
      "primitives": [
        {
          "attributes": {
            "NORMAL": 1,
            "POSITION": 0,
            "TANGENT": 2,
            "TEXCOORD_0": 3
          },
          "indices": 4,
          "material": 0,
          "mode": 4
        }
      ]
    },
    {
      "name": "CampFire_Ash_0",
      "primitives": [
        {
          "attributes": {
            "NORMAL": 6,
            "POSITION": 5,
            "TANGENT": 7,
            "TEXCOORD_0": 8
          },
          "indices": 9,
          "material": 1,
          "mode": 4
        }
      ]
    },
    {
      "name": "CampFire_Wood_0",
      "primitives": [
        {
          "attributes": {
            "NORMAL": 11,
            "POSITION": 10,
            "TANGENT": 12,
            "TEXCOORD_0": 13
          },
          "indices": 14,
          "material": 2,
          "mode": 4
        }
      ]
    }
  ],
  "nodes": [
    {
      "children": [
        1
      ],
      "matrix": [
        1.0,
        0.0,
        0.0,
        0.0,
        0.0,
        2.220446049250313e-16,
        -1.0,
        0.0,
        0.0,
        1.0,
        2.220446049250313e-16,
        0.0,
        0.0,
        0.0,
        0.0,
        1.0
      ],
      "name": "Sketchfab_model"
    },
    {
      "children": [
        2
      ],
      "matrix": [
        1.0,
        0.0,
        0.0,
        0.0,
        0.0,
        0.0,
        1.0,
        0.0,
        0.0,
        -1.0,
        0.0,
        0.0,
        0.0,
        0.0,
        0.0,
        1.0
      ],
      "name": "CfWood.fbx"
    },
    {
      "children": [
        3
      ],
      "name": "RootNode"
    },
    {
      "children": [
        4,
        5,
        6
      ],
      "matrix": [
        1.0,
        0.0,
        0.0,
        0.0,
        0.0,
        -1.6292067939183141e-07,
        -0.9999999999999868,
        0.0,
        0.0,
        0.9999999999999868,
        -1.6292067939183141e-07,
        0.0,
        0.0,
        0.0,
        0.0,
        1.0
      ],
      "name": "CampFire"
    },
    {
      "mesh": 0,
      "name": "CampFire_Stone_0"
    },
    {
      "mesh": 1,
      "name": "CampFire_Ash_0"
    },
    {
      "mesh": 2,
      "name": "CampFire_Wood_0"
    }
  ],
  "samplers": [
    {
      "magFilter": 9729,
      "minFilter": 9987,
      "wrapS": 10497,
      "wrapT": 10497
    }
  ],
  "scene": 0,
  "scenes": [
    {
      "name": "Sketchfab_Scene",
      "nodes": [
        0
      ]
    }
  ],
  "textures": [
    {
      "sampler": 0,
      "source": 0
    },
    {
      "sampler": 0,
      "source": 1
    },
    {
      "sampler": 0,
      "source": 2
    },
    {
      "sampler": 0,
      "source": 3
    },
    {
      "sampler": 0,
      "source": 4
    },
    {
      "sampler": 0,
      "source": 5
    },
    {
      "sampler": 0,
      "source": 6
    },
    {
      "sampler": 0,
      "source": 7
    },
    {
      "sampler": 0,
      "source": 8
    }
  ]
}
